<svg width="1600" height="1000" viewBox="0 0 1600 1000" fill="none" xmlns="http://www.w3.org/2000/svg">
  <defs>
    <linearGradient id="bg" x1="0" y1="0" x2="1600" y2="1000" gradientUnits="userSpaceOnUse">
      <stop offset="0" stop-color="#FFF6E8" />
      <stop offset="0.5" stop-color="#F4F0EA" />
      <stop offset="1" stop-color="#E7F1EF" />
    </linearGradient>
    <linearGradient id="accent" x1="0" y1="0" x2="220" y2="0" gradientUnits="userSpaceOnUse">
      <stop offset="0" stop-color="#FF7A59" />
      <stop offset="1" stop-color="#FFB26E" />
    </linearGradient>
  </defs>
  <rect width="1600" height="1000" rx="48" fill="url(#bg)" />
  <rect x="80" y="80" width="1440" height="840" rx="36" fill="#FFFDF8" stroke="#E7E0D6" />
  <rect x="120" y="120" width="320" height="760" rx="24" fill="#F6F1EA" />
  <rect x="150" y="160" width="260" height="14" rx="7" fill="#D9D0C4" />
  <rect x="150" y="200" width="180" height="12" rx="6" fill="#E7E0D6" />
  <rect x="150" y="240" width="220" height="12" rx="6" fill="#E7E0D6" />
  <rect x="150" y="290" width="240" height="36" rx="18" fill="url(#accent)" />

  <rect x="480" y="140" width="980" height="70" rx="16" fill="#F0E8DC" />
  <rect x="520" y="165" width="240" height="20" rx="10" fill="#D9D0C4" />
  <rect x="1160" y="158" width="260" height="32" rx="16" fill="#123338" />

  <rect x="480" y="240" width="980" height="520" rx="22" fill="#FFFFFF" stroke="#EFE6DA" />
  <rect x="520" y="280" width="520" height="14" rx="7" fill="#E2D6C7" />
  <rect x="520" y="315" width="840" height="12" rx="6" fill="#EFE6DA" />
  <rect x="520" y="345" width="780" height="12" rx="6" fill="#EFE6DA" />
  <rect x="520" y="375" width="860" height="12" rx="6" fill="#EFE6DA" />
  <rect x="520" y="420" width="620" height="12" rx="6" fill="#EADFD2" />
  <rect x="520" y="450" width="860" height="12" rx="6" fill="#EADFD2" />
  <rect x="520" y="480" width="820" height="12" rx="6" fill="#EADFD2" />

  <rect x="520" y="540" width="900" height="150" rx="16" fill="#F7F1EA" />
  <rect x="550" y="570" width="180" height="12" rx="6" fill="#D9D0C4" />
  <rect x="550" y="595" width="820" height="10" rx="5" fill="#E7E0D6" />
  <rect x="550" y="620" width="760" height="10" rx="5" fill="#E7E0D6" />
  <rect x="550" y="645" width="720" height="10" rx="5" fill="#E7E0D6" />

  <rect x="520" y="740" width="220" height="44" rx="22" fill="#123338" />
  <rect x="760" y="740" width="160" height="44" rx="22" fill="#FFE1C2" />
  <rect x="940" y="740" width="180" height="44" rx="22" fill="#F0E8DC" />

  <rect x="1160" y="780" width="300" height="120" rx="20" fill="#FFFFFF" stroke="#EFE6DA" />
  <rect x="1190" y="815" width="240" height="12" rx="6" fill="#E2D6C7" />
  <rect x="1190" y="845" width="200" height="10" rx="5" fill="#EFE6DA" />
  <rect x="1190" y="868" width="230" height="10" rx="5" fill="#EFE6DA" />
</svg>
