<svg width="1600" height="1000" viewBox="0 0 1600 1000" fill="none" xmlns="http://www.w3.org/2000/svg">
  <defs>
    <linearGradient id="bg" x1="0" y1="0" x2="1600" y2="1000" gradientUnits="userSpaceOnUse">
      <stop offset="0" stop-color="#F7FBFA" />
      <stop offset="0.5" stop-color="#FFF7ED" />
      <stop offset="1" stop-color="#F2F6F3" />
    </linearGradient>
    <linearGradient id="card" x1="0" y1="0" x2="560" y2="220" gradientUnits="userSpaceOnUse">
      <stop offset="0" stop-color="#FFFFFF" />
      <stop offset="1" stop-color="#F9F4EC" />
    </linearGradient>
  </defs>
  <rect width="1600" height="1000" rx="48" fill="url(#bg)" />
  <rect x="120" y="120" width="1360" height="760" rx="36" fill="#FFFFFF" stroke="#E7E0D6" />

  <rect x="200" y="210" width="520" height="220" rx="24" fill="url(#card)" stroke="#EFE6DA" />
  <rect x="240" y="260" width="280" height="14" rx="7" fill="#D9D0C4" />
  <rect x="240" y="300" width="420" height="12" rx="6" fill="#EFE6DA" />
  <rect x="240" y="330" width="380" height="12" rx="6" fill="#EFE6DA" />
  <rect x="240" y="360" width="340" height="12" rx="6" fill="#EFE6DA" />

  <rect x="880" y="210" width="520" height="220" rx="24" fill="url(#card)" stroke="#EFE6DA" />
  <rect x="920" y="260" width="260" height="14" rx="7" fill="#D9D0C4" />
  <rect x="920" y="300" width="420" height="12" rx="6" fill="#EFE6DA" />
  <rect x="920" y="330" width="360" height="12" rx="6" fill="#EFE6DA" />
  <rect x="920" y="360" width="300" height="12" rx="6" fill="#EFE6DA" />

  <rect x="200" y="520" width="1200" height="260" rx="28" fill="#F6F1EA" />
  <rect x="250" y="580" width="280" height="14" rx="7" fill="#CFC5B6" />
  <rect x="250" y="620" width="1040" height="12" rx="6" fill="#E6DED2" />
  <rect x="250" y="650" width="980" height="12" rx="6" fill="#E6DED2" />
  <rect x="250" y="680" width="920" height="12" rx="6" fill="#E6DED2" />
  <rect x="250" y="715" width="200" height="44" rx="22" fill="#123338" />
  <rect x="470" y="715" width="180" height="44" rx="22" fill="#FF7A59" />

  <circle cx="800" cy="470" r="10" fill="#FF7A59" />
  <circle cx="800" cy="470" r="22" stroke="#FFB26E" stroke-width="6" />
</svg>
